<svg width="1024" height="1024" viewBox="0 0 1024 1024" fill="none" xmlns="http://www.w3.org/2000/svg">
<path d="M875.397 112H223.248C202.04 112 184.848 129.192 184.848 150.4V802.549C184.848 823.757 202.04 840.949 223.248 840.949H875.397C896.605 840.949 913.797 823.757 913.797 802.549V150.4C913.797 129.192 896.605 112 875.397 112Z" fill="#597EF7"/>
<path d="M800.549 182.509H148.4C127.192 182.509 110 199.701 110 220.909V873.058C110 894.265 127.192 911.458 148.4 911.458H800.549C821.757 911.458 838.949 894.265 838.949 873.058V220.909C838.949 199.701 821.757 182.509 800.549 182.509Z" fill="#E4EBF7"/>
<path fill-rule="evenodd" clip-rule="evenodd" d="M549.149 793.023C536.296 701.065 457.735 592.509 362.469 592.509C265.613 592.509 185.9 698.824 175.085 793.023C251.512 793.023 450.926 793.023 549.149 793.023Z" fill="#597EF7"/>
<path fill-rule="evenodd" clip-rule="evenodd" d="M472.724 514.68C472.724 575.923 423.205 625.569 362.123 625.569C301.031 625.569 251.512 575.923 251.512 514.68C251.512 453.437 301.031 403.797 362.123 403.797C423.205 403.797 472.724 453.437 472.724 514.68Z" fill="#597EF7"/>
<path d="M755.424 250.847H581.864C572.279 250.847 564.508 258.618 564.508 268.203C564.508 277.789 572.279 285.559 581.864 285.559H755.424C765.009 285.559 772.779 277.789 772.779 268.203C772.779 258.618 765.009 250.847 755.424 250.847Z" fill="#ADC6FF"/>
<path d="M755.424 319.187H581.864C572.279 319.187 564.508 326.957 564.508 336.542C564.508 346.128 572.279 353.898 581.864 353.898H755.424C765.009 353.898 772.779 346.128 772.779 336.542C772.779 326.957 765.009 319.187 755.424 319.187Z" fill="#ADC6FF"/>
</svg>
