<svg width="279" height="522" viewBox="0 0 279 522" fill="none" xmlns="http://www.w3.org/2000/svg">
<g clip-path="url(#clip0_174_9802)">
<path fill-rule="evenodd" clip-rule="evenodd" d="M129.09 52.7233C129.09 52.7233 112.705 50.3475 108.375 67.6671C92.4953 73.4423 96.8271 90.7634 96.8271 90.7634C96.8271 90.7634 88.851 104.37 104.694 111.341C105.961 125.281 121.803 122.747 121.803 122.747C121.803 122.747 125.606 133.52 137.646 129.083C150.637 139.187 175.119 137.16 183.813 124.808C201.049 137.674 231.041 121.968 227.278 110.223C247.409 109.003 257.169 87.653 245.374 69.5166C254.434 55.1706 244.105 46.7032 244.105 46.7032C244.105 46.7032 246.957 13.7508 224.145 9.31558C212.421 -8.42836 187.074 5.82945 187.074 5.82945C187.074 5.82945 170.281 2.34485 164.26 16.919C145.496 19.8059 146.377 30.1213 144.933 38.7818C128.14 39.7325 129.09 52.7233 129.09 52.7233Z" fill="#4E5C93"/>
<path fill-rule="evenodd" clip-rule="evenodd" d="M181.159 36.634C194.314 38.9429 198.314 28.988 198.314 28.988C198.314 28.988 203.743 14.9659 205.135 23.5733C205.872 28.1484 212.945 22.0781 216.197 26.9544C218.385 30.2367 212.914 34.4666 220.025 43.2184C224.146 48.2879 207.894 52.3323 217.92 61.6773C217.92 61.6773 210.791 73.0832 223.035 76.8035L224.333 90.1792C225.089 97.9621 218.963 104.699 211.144 104.686C203.688 104.674 197.714 98.5066 197.939 91.0538L198.433 74.7472C179.424 74.7472 178.496 48.618 181.159 36.634Z" fill="#FFC999"/>
<path d="M204.219 50.5423C204.549 50.2126 205.083 50.2124 205.413 50.542C205.743 50.8716 205.743 51.4061 205.413 51.7358C204.985 52.1641 204.211 52.7763 203.121 53.3825C200.973 54.5777 198.508 55.1994 195.794 54.9361C195.33 54.8911 194.991 54.4784 195.036 54.0144C195.081 53.5503 195.493 53.2107 195.957 53.2557C198.303 53.4832 200.433 52.9458 202.3 51.9072C202.851 51.6008 203.335 51.2732 203.748 50.9473L203.961 50.7736C204.085 50.6695 204.172 50.5901 204.219 50.5423Z" fill="#F5222D"/>
<path d="M194.485 38.1952L194.484 37.9682C194.51 37.6805 194.742 37.446 195.039 37.425C195.337 37.4039 195.599 37.6036 195.665 37.8847L195.681 38.0068L195.683 38.0328C195.703 38.6106 195.599 39.4924 195.267 40.6406C194.823 42.1772 194.053 43.8584 192.893 45.6597L192.683 45.9758L193.018 46.1832L193.829 46.6767C194.615 47.1498 195.327 47.5615 195.964 47.9158L196.277 48.0881C196.59 48.2593 196.865 48.4052 197.103 48.5274L197.588 48.769C197.889 48.9078 198.021 49.2642 197.882 49.5652C197.743 49.8661 197.387 49.9975 197.086 49.8588L196.831 49.735L196.363 49.4954C196.23 49.4259 196.088 49.3503 195.936 49.2685L195.701 49.1411C194.556 48.515 193.164 47.697 191.518 46.6646C191.228 46.4824 191.149 46.0942 191.345 45.813C192.75 43.7991 193.638 41.9528 194.114 40.3072C194.386 39.3687 194.483 38.6562 194.485 38.1952Z" fill="#DD936F"/>
<path d="M212.811 37.2655C213.259 37.2655 213.622 37.6288 213.622 38.077C213.622 41.1964 211.272 43.7525 208.339 43.7525C205.406 43.7525 203.057 41.1966 203.057 38.077C203.057 37.6288 203.421 37.2655 203.869 37.2655C204.317 37.2655 204.68 37.6288 204.68 38.077C204.68 40.3295 206.335 42.1296 208.339 42.1296C210.344 42.1296 211.999 40.3291 211.999 38.077C211.999 37.6288 212.363 37.2655 212.811 37.2655Z" fill="#253368"/>
<path d="M191.43 37.8226C191.856 37.8226 192.201 38.1676 192.201 38.593C192.201 41.6753 190.09 44.2275 187.407 44.2275C184.724 44.2275 182.614 41.6759 182.614 38.593C182.614 38.1676 182.959 37.8226 183.384 37.8226C183.81 37.8226 184.155 38.1676 184.155 38.593C184.155 40.8828 185.647 42.6868 187.407 42.6868C189.167 42.6868 190.66 40.8821 190.66 38.593C190.66 38.1676 191.005 37.8226 191.43 37.8226Z" fill="#253368"/>
<path d="M203.56 28.3391C206.661 27.3427 209.942 27.2111 213.041 28.5178C213.612 28.7584 214.167 29.0463 214.706 29.3832C215.086 29.6207 215.202 30.1213 214.964 30.5014C214.727 30.8814 214.226 30.997 213.846 30.7595C213.381 30.4686 212.902 30.2204 212.41 30.0132C209.722 28.8797 206.821 28.9961 204.056 29.8842C203.707 29.9963 203.384 30.1143 203.089 30.2333L202.805 30.3525C202.591 30.4457 202.446 30.5159 202.378 30.5518C201.981 30.7609 201.49 30.6092 201.281 30.2128C201.072 29.8165 201.224 29.3256 201.62 29.1164C202.002 28.915 202.668 28.6255 203.56 28.3391Z" fill="#253368"/>
<path d="M209.796 71.2703C210.087 71.1118 210.451 71.2193 210.61 71.5104C210.768 71.8014 210.661 72.1659 210.37 72.3243C206.511 74.4248 202.497 75.483 198.46 75.5381C198.128 75.5426 197.856 75.2777 197.852 74.9463C197.847 74.615 198.112 74.3427 198.443 74.3382C202.285 74.2858 206.108 73.2779 209.796 71.2703Z" fill="#DD936F"/>
<path fill-rule="evenodd" clip-rule="evenodd" d="M164.173 220.096C155.395 218.799 149.329 210.632 150.627 201.855L163.259 116.318C164.554 107.541 172.721 101.475 181.5 102.771C190.276 104.068 196.34 112.235 195.046 121.012L182.412 206.55C181.117 215.328 172.95 221.392 164.173 220.096Z" fill="#FFC999"/>
<path fill-rule="evenodd" clip-rule="evenodd" d="M189.689 157.272L195.045 121.012C196.336 112.271 190.24 104.062 181.499 102.77C172.758 101.481 164.55 107.577 163.259 116.318L157.954 152.233L189.689 157.272Z" fill="#253368"/>
<path d="M182.028 102.36C190.929 103.675 197.164 111.947 196.027 120.833L195.984 121.151L190.627 157.411C190.592 157.648 190.391 157.819 190.16 157.824L190.072 157.818L158.338 152.779C158.074 152.738 157.895 152.49 157.936 152.226C157.974 151.991 158.174 151.823 158.403 151.818L158.49 151.824L189.74 156.785L195.027 121.01C196.262 112.638 190.511 104.769 182.204 103.368L181.887 103.317C181.623 103.278 181.44 103.033 181.479 102.768C181.514 102.533 181.712 102.363 181.941 102.355L182.028 102.36Z" fill="#4E5C93"/>
<path fill-rule="evenodd" clip-rule="evenodd" d="M108.162 191.912C108.036 195.048 110.398 197.728 113.523 197.996L173.873 203.192C179.434 203.485 184.166 199.178 184.39 193.613C184.618 187.999 180.173 183.3 174.555 183.214L113.73 186.288C110.699 186.441 108.285 188.879 108.162 191.912Z" fill="#FFC999"/>
<path fill-rule="evenodd" clip-rule="evenodd" d="M102.25 183.966C102.25 183.966 113.09 183.108 115.864 188.887C118.379 194.121 113.461 197.258 113.461 197.258C113.461 197.258 109.064 201.151 102.893 203.277C98.8278 204.676 90.8243 206.555 89.8007 204.518C88.4652 201.862 97.6475 200.264 97.3053 198.13C96.9554 195.938 95.0329 196.128 90.5216 195.121C87.7032 194.492 84.6764 194.981 82.3873 193.993C77.9156 192.06 85.8841 183.899 102.25 183.966Z" fill="#FFC999"/>
<path d="M82.9836 191.101C87.0334 190.112 90.6959 190.279 93.8017 191.16C94.364 191.319 94.8604 191.491 95.2869 191.663L95.5627 191.779C95.6816 191.831 95.7718 191.874 95.8325 191.905C96.1274 192.056 96.2438 192.418 96.0926 192.712C95.9413 193.007 95.5797 193.124 95.2848 192.973L95.0729 192.874C95.0068 192.846 94.9282 192.813 94.8374 192.776C94.45 192.619 93.9942 192.462 93.4743 192.314C90.5585 191.488 87.1047 191.33 83.2685 192.267C82.9466 192.346 82.6219 192.149 82.5432 191.827C82.4645 191.505 82.6617 191.18 82.9836 191.101Z" fill="#DD936F"/>
<path d="M87.7559 187.769C90.7459 187.279 93.9936 187.297 97.1327 188.17C97.452 188.259 97.6389 188.589 97.5501 188.909C97.4614 189.228 97.1306 189.415 96.8113 189.326C93.8626 188.507 90.7823 188.489 87.9499 188.953C87.6521 189.002 87.3779 189.053 87.1295 189.105L86.8899 189.157C86.7083 189.198 86.5847 189.229 86.5247 189.246C86.2054 189.334 85.8748 189.147 85.7863 188.828C85.6979 188.508 85.8851 188.178 86.2044 188.089L86.5127 188.012L86.6263 187.986C86.9566 187.912 87.3348 187.838 87.7559 187.769Z" fill="#DD936F"/>
<path d="M90.7981 185.09C94.0486 184.724 96.7101 184.833 98.7863 185.24L99.2335 185.334C99.7152 185.444 100.057 185.549 100.26 185.629C100.568 185.75 100.72 186.099 100.598 186.407C100.477 186.715 100.128 186.867 99.8198 186.745L99.657 186.688C99.4278 186.614 99.061 186.517 98.5557 186.418C96.5996 186.035 94.061 185.931 90.9323 186.283C90.603 186.32 90.306 186.083 90.269 185.754C90.2319 185.424 90.4688 185.127 90.7981 185.09Z" fill="#DD936F"/>
<path fill-rule="evenodd" clip-rule="evenodd" d="M76.8036 454.354L39.0129 309.011C36.2903 298.54 42.823 287.907 53.3939 285.603C63.9633 283.299 74.3289 290.248 76.2104 300.903L100.185 449.788C101.405 456.701 99.1075 462.346 92.2463 463.841C85.3866 465.336 78.571 461.149 76.8036 454.354Z" fill="#FFC999"/>
<path fill-rule="evenodd" clip-rule="evenodd" d="M201.476 233.796C195.917 222.325 182.003 217.681 170.668 223.514L48.8013 286.21C39.4153 291.04 35.5976 302.477 40.2032 311.975C44.8072 321.474 56.1508 325.562 65.7559 321.185L190.465 264.351C202.064 259.066 207.037 245.266 201.476 233.796Z" fill="#FFC999"/>
<path fill-rule="evenodd" clip-rule="evenodd" d="M79.7325 465.719L103.148 461.375L97.595 424.094L70.7114 429.08L79.7325 465.719Z" fill="#E4EBF7"/>
<path d="M97.0463 431.043C97.4708 430.964 97.8788 431.244 97.9576 431.669C98.0298 432.058 97.8003 432.433 97.4345 432.554L97.3315 432.58L72.5134 437.184C72.0889 437.263 71.6809 436.983 71.6021 436.558C71.5299 436.169 71.7594 435.794 72.1252 435.673L72.2282 435.647L97.0463 431.043Z" fill="#E4EBF7"/>
<path fill-rule="evenodd" clip-rule="evenodd" d="M77.1269 464.693L102.871 459.917L112.921 506.833L54.9143 517.593L53.4283 510.38C52.8914 507.726 54.3333 505.069 56.8505 504.074L71.4095 496.69L78.4852 490.718C80.6176 488.919 81.588 486.104 81.007 483.375C79.7567 477.512 77.6532 467.564 77.1269 464.693Z" fill="#4E5C93"/>
<path fill-rule="evenodd" clip-rule="evenodd" d="M112.646 508.474L54.8149 519.201C54.2658 519.303 53.7395 518.941 53.6376 518.392L52.4345 511.907C52.3341 511.359 52.6946 510.833 53.2437 510.731L111.075 500.003C111.623 499.901 112.15 500.263 112.251 500.811L113.454 507.297C113.556 507.846 113.194 508.372 112.646 508.474Z" fill="#CCD7EE"/>
<path fill-rule="evenodd" clip-rule="evenodd" d="M53.2441 510.731C52.4851 506.642 54.8046 502.609 58.7197 501.208L71.4048 496.668L74.1623 506.702L53.2441 510.731Z" fill="#CCD7EE"/>
<path d="M111.001 499.61C111.218 499.57 111.427 499.713 111.467 499.93C111.502 500.121 111.397 500.304 111.225 500.374L111.147 500.397L53.3171 511.124C53.0998 511.165 52.8911 511.021 52.8508 510.804C52.8155 510.614 52.9209 510.43 53.0934 510.36L53.1711 510.338L111.001 499.61Z" fill="#A3B5D6"/>
<path d="M80.9646 480.93L81.1996 480.941C81.2671 480.945 81.3445 480.951 81.4312 480.958C81.7854 480.987 82.1785 481.034 82.601 481.101C83.8095 481.295 85.0195 481.62 86.157 482.112C87.0682 482.505 87.8951 482.991 88.6163 483.58C89.1318 484.001 88.919 484.833 88.2646 484.955C87.6269 485.073 86.6983 485.373 85.5641 485.814L85.2497 485.938C84.9247 486.068 84.5879 486.207 84.2417 486.353C83.7271 486.572 83.2076 486.8 82.6954 487.033L82.428 487.155L82.4959 487.192C83.5305 487.768 84.5667 488.477 85.5542 489.331L85.9743 489.705C86.4781 490.169 86.1845 491.011 85.5015 491.06C84.717 491.117 83.8185 491.274 82.8297 491.519C81.8663 491.758 80.8413 492.074 79.784 492.449C79.5629 492.527 79.3435 492.607 79.1264 492.688L78.59 492.891L78.7525 492.951C79.1005 493.086 79.444 493.247 79.7802 493.435L80.1138 493.632C80.639 493.96 81.1285 494.352 81.5748 494.811C81.8757 495.121 81.8687 495.616 81.559 495.917C81.2494 496.218 80.7545 496.211 80.4535 495.901C80.0966 495.534 79.7055 495.221 79.2852 494.958C78.1367 494.24 76.9653 493.973 76.109 493.951L75.9304 493.95L75.8234 493.947C75.0597 493.878 74.8394 492.805 75.5756 492.461L75.8634 492.33C76.0911 492.228 76.3511 492.115 76.6392 491.993C77.4613 491.646 78.3464 491.299 79.2621 490.975C80.3642 490.584 81.4366 490.254 82.4536 490.002C82.759 489.926 83.0574 489.858 83.3485 489.798L83.5799 489.752L83.3498 489.582C82.95 489.295 82.5456 489.032 82.1406 488.791L81.7356 488.558C81.4533 488.401 81.1871 488.264 80.9409 488.146L80.7015 488.035C80.5205 487.953 80.3957 487.902 80.3366 487.88C79.6937 487.64 79.6491 486.748 80.265 486.446L81.0119 486.088L81.2731 485.966C82.0416 485.607 82.841 485.249 83.6314 484.914L84.331 484.623C84.4454 484.576 84.5586 484.53 84.6706 484.486L85.3328 484.228C85.4396 484.188 85.5448 484.149 85.6481 484.111L86.2589 483.894L86.1891 483.856L85.8681 483.697L85.5368 483.547C84.53 483.112 83.4425 482.82 82.3537 482.645C82.0675 482.599 81.797 482.564 81.5464 482.539L81.0324 482.497C80.987 482.495 80.9515 482.493 80.9268 482.493C80.4951 482.482 80.1537 482.124 80.1641 481.692C80.1746 481.261 80.533 480.919 80.9646 480.93Z" fill="#E4EBF7"/>
<path d="M82.4448 473.63C81.3578 473.724 80.4452 473.85 79.7756 473.968L79.5126 474.017C79.4251 474.034 79.3411 474.066 79.2643 474.111C78.353 474.648 77.9146 475.35 78.0777 476.138C78.1945 476.703 78.5831 477.15 79.1413 477.545C79.4813 477.786 79.8135 477.96 80.0514 478.062L80.1419 478.118L80.9657 478.58C81.2281 478.725 81.5084 478.879 81.8046 479.039C83.2148 479.8 84.6994 480.562 86.1905 481.273C87.1685 481.74 88.118 482.17 89.0288 482.555C92.0826 483.846 94.5335 484.574 96.2382 484.574C98.6842 484.573 99.6872 482.996 98.7072 480.301C97.2218 476.212 93.3837 474.157 88.0994 473.631C86.2525 473.448 84.3369 473.465 82.4448 473.63ZM87.9448 475.187C92.57 475.647 95.8256 477.337 97.1357 480.569L97.2376 480.835C97.8587 482.543 97.5617 483.01 96.2377 483.01C94.8042 483.011 92.5084 482.329 89.6379 481.115C88.75 480.739 87.8216 480.319 86.8638 479.862C85.3982 479.163 83.9363 478.413 82.5475 477.663L81.7222 477.212L80.7505 476.666C80.522 476.562 80.2798 476.436 80.0454 476.27C79.7809 476.082 79.6259 475.904 79.6089 475.821L79.6093 475.81C79.6164 475.778 79.6704 475.709 79.86 475.582L79.9458 475.526L80.2711 475.47C80.8722 475.37 81.6588 475.267 82.5798 475.187C84.382 475.031 86.2034 475.014 87.9448 475.187Z" fill="#E4EBF7"/>
<path fill-rule="evenodd" clip-rule="evenodd" d="M239.351 248.087C233.125 236.964 219.837 232.656 209.921 238.551L103.33 301.93C95.1209 306.811 92.6812 318.062 97.8359 327.273C102.992 336.484 113.855 340.291 122.31 335.847L232.084 278.157C242.294 272.791 245.575 259.211 239.351 248.087Z" fill="#FFC999"/>
<path fill-rule="evenodd" clip-rule="evenodd" d="M58.7162 477.251C52.0649 475.005 48.3719 467.906 50.3522 461.171L92.7074 317.092C95.7585 306.713 106.83 300.954 117.078 304.414C127.328 307.876 132.643 319.166 128.778 329.27L75.1156 469.532C72.6074 476.091 65.369 479.498 58.7162 477.251Z" fill="#FFC999"/>
<path fill-rule="evenodd" clip-rule="evenodd" d="M47.0176 471.619L71.0441 480.742L86.5635 442.546L58.9817 432.07L47.0176 471.619Z" fill="#E4EBF7"/>
<path d="M55.0456 443.235C55.1838 442.864 55.5737 442.66 55.9493 442.745L56.0512 442.775L79.7042 451.594C80.1088 451.745 80.3145 452.195 80.1636 452.6C80.0254 452.971 79.6355 453.174 79.2599 453.09L79.158 453.059L55.505 444.24C55.1004 444.09 54.8947 443.639 55.0456 443.235Z" fill="#E4EBF7"/>
<path fill-rule="evenodd" clip-rule="evenodd" d="M48.8136 465.837L73.3473 474.984L57.8331 520.386L2.55249 499.775L4.99065 492.827C5.89412 490.275 8.49655 488.738 11.1674 489.179L27.4512 490.335L36.5909 488.854C39.3439 488.407 41.6238 486.492 42.5303 483.853C44.4757 478.183 47.7869 468.568 48.8136 465.837Z" fill="#4E5C93"/>
<path fill-rule="evenodd" clip-rule="evenodd" d="M1.18137 501.35C0.659669 501.156 0.393496 500.573 0.588183 500.052L2.89249 493.872C3.08718 493.349 3.6682 493.084 4.1899 493.279L59.3032 513.826C59.8249 514.02 60.0911 514.601 59.8964 515.123L57.5921 521.304C57.3974 521.828 56.8164 522.092 56.2931 521.898L1.18137 501.35Z" fill="#CCD7EE"/>
<path fill-rule="evenodd" clip-rule="evenodd" d="M3.17603 492.644C4.62858 488.749 10.2137 486.483 14.2915 487.295L25.9864 489.926L23.1878 499.95L3.17603 492.644Z" fill="#CCD7EE"/>
<path d="M3.19157 493.075C3.2591 492.894 3.44393 492.79 3.62776 492.819L3.70614 492.84L58.8164 513.387C59.0234 513.464 59.1286 513.694 59.0515 513.901C58.9839 514.083 58.7991 514.186 58.6153 514.157L58.5369 514.136L3.42664 493.589C3.21964 493.512 3.11439 493.282 3.19157 493.075Z" fill="#A3B5D6"/>
<path d="M39.9321 485.357C40.2444 485.058 40.7393 485.07 41.0374 485.382L41.1915 485.551C41.3383 485.716 41.529 485.943 41.7496 486.227C42.2603 486.885 42.7512 487.619 43.1837 488.415C43.937 489.801 44.4332 491.228 44.5792 492.664C44.6465 493.327 43.9082 493.765 43.3593 493.388C42.7345 492.96 41.6578 492.428 40.2705 491.843C39.6005 491.561 38.8892 491.279 38.1653 491.005L37.6745 490.821L37.7132 490.949C37.7979 491.249 37.8775 491.562 37.9505 491.887L38.0551 492.384C38.2294 493.272 38.3431 494.191 38.3825 495.132C38.4112 495.817 37.6089 496.204 37.0905 495.757C36.3134 495.086 35.2829 494.402 34.0578 493.722C33.2726 493.286 32.4379 492.868 31.582 492.474L30.9024 492.167L30.9653 492.3C31.3769 493.222 31.6236 494.219 31.6576 495.28L31.661 495.636C31.6555 496.067 31.301 496.413 30.8693 496.407C30.4375 496.402 30.092 496.047 30.0976 495.616C30.1111 494.564 29.8632 493.584 29.4202 492.688C29.1879 492.218 28.9169 491.801 28.6328 491.445L28.4806 491.261C28.3888 491.154 28.3177 491.08 28.2751 491.04C27.6558 490.458 28.2776 489.446 29.0763 489.735L29.5855 489.928L30.2132 490.177C30.4322 490.266 30.6606 490.361 30.8969 490.462C32.2487 491.035 33.5857 491.672 34.8166 492.355C35.3994 492.678 35.9434 493.004 36.4444 493.332L36.6539 493.473L36.6097 493.176L36.5208 492.685C36.3696 491.915 36.1775 491.214 35.9658 490.595L35.82 490.19C35.7625 490.039 35.7157 489.927 35.6837 489.857C35.398 489.233 35.9971 488.57 36.6466 488.791L37.4755 489.083C37.6361 489.141 37.8037 489.202 37.9774 489.266C38.9707 489.631 39.9595 490.015 40.878 490.402C41.4465 490.642 41.9669 490.874 42.4338 491.097L42.6893 491.221L42.6186 490.995C42.4543 490.505 42.2469 490.015 42.0012 489.527L41.8098 489.161C41.4208 488.445 40.9763 487.781 40.5149 487.187L40.2949 486.91C40.125 486.702 39.9908 486.55 39.9062 486.462C39.6082 486.15 39.6197 485.655 39.9321 485.357Z" fill="#E4EBF7"/>
<path d="M43.4696 481.279C41.8289 481.265 41.0856 482.218 41.3787 483.51C41.448 483.815 41.5691 484.122 41.727 484.43C41.8689 484.706 42.0107 484.929 42.113 485.071L42.2478 485.32L42.7674 486.222C42.9531 486.54 43.1518 486.876 43.3622 487.227C44.3643 488.899 45.4265 490.571 46.5035 492.135C47.3571 493.374 48.1858 494.493 48.9788 495.466C50.6618 497.53 52.1235 498.87 53.3904 499.35C55.182 500.03 56.4919 499.006 56.9614 496.589C57.7964 492.286 55.5234 488.528 51.2047 485.347C49.7035 484.241 48.0438 483.275 46.3358 482.449C45.4764 482.034 44.7304 481.712 44.1546 481.486L43.7294 481.326C43.6461 481.295 43.5582 481.28 43.4696 481.279ZM43.1475 482.843L43.321 482.841L43.8008 483.029C44.3074 483.234 44.9387 483.51 45.6552 483.857C47.2824 484.643 48.8611 485.562 50.2774 486.606C54.1624 489.467 56.1219 492.707 55.4265 496.291C55.1235 497.851 54.706 498.177 53.9449 497.888C53.0124 497.535 51.7089 496.34 50.1906 494.478C49.4267 493.541 48.6224 492.454 47.7911 491.248C46.7348 489.714 45.6897 488.069 44.7034 486.423L44.1178 485.433L43.4649 484.296C43.4519 484.272 43.4404 484.252 43.4305 484.234C43.3208 484.072 43.2193 483.913 43.118 483.715C43.0153 483.515 42.9401 483.325 42.9035 483.164L42.8786 483.044C42.8534 482.891 42.8939 482.852 43.1475 482.843Z" fill="#E4EBF7"/>
<path fill-rule="evenodd" clip-rule="evenodd" d="M171.212 122.671C168.456 129.834 163.292 142.192 163.055 150.156C162.67 163.068 171.63 172.094 171.63 172.094C171.63 172.094 171.477 168.313 174.386 201.519C213.092 205.822 237.05 197.142 237.05 197.142L235.748 188.373L240.65 167.141C240.65 167.141 243.938 159.142 250.608 141.339C255.245 128.963 253.93 114.065 252.696 106.133C252.168 102.735 249.604 100.011 246.241 99.2898C234.491 96.7725 230.115 96.9459 230.115 96.9459L228.546 89.3987C228.28 88.1059 227.099 87.2085 225.784 87.2906L197.642 89.0656C196.433 89.1417 195.429 90.0269 195.203 91.2178L193.648 99.3902L176.447 103.903C173.747 104.61 171.826 107.001 171.717 109.791L171.212 122.671Z" fill="#253368"/>
<path d="M222.227 97.3579C222.493 97.3411 222.723 97.5436 222.74 97.8102C222.755 98.0471 222.597 98.255 222.374 98.3101L222.288 98.3234L196.949 99.9219C196.683 99.9387 196.453 99.7362 196.436 99.4696C196.421 99.2327 196.58 99.0248 196.802 98.9697L196.889 98.9565L222.227 97.3579Z" fill="#4E5C93"/>
<path d="M229.871 94.8508C230.11 94.6048 230.503 94.5989 230.749 94.8375C230.968 95.0496 230.997 95.3836 230.833 95.628L230.762 95.715L198.57 128.897C198.246 129.231 197.697 129.099 197.544 128.683L197.517 128.59L191.637 99.8914C191.568 99.5556 191.784 99.2277 192.12 99.1589C192.422 99.097 192.718 99.2661 192.824 99.5453L192.853 99.6422L198.497 127.19L229.871 94.8508Z" fill="#CCD7EE"/>
<path fill-rule="evenodd" clip-rule="evenodd" d="M187.257 133.886C184.747 138.802 186.388 144.666 190.922 146.984C195.458 149.3 201.169 147.192 203.682 142.276C206.193 137.36 204.552 131.497 200.016 129.18C195.481 126.862 189.768 128.971 187.257 133.886Z" fill="#CCD7EE"/>
<path fill-rule="evenodd" clip-rule="evenodd" d="M186.247 133.927C183.735 138.843 185.377 144.707 189.911 147.023C194.448 149.34 200.159 147.233 202.67 142.317C205.181 137.4 203.54 131.536 199.006 129.22C194.469 126.903 188.756 129.011 186.247 133.927Z" fill="#E4EBF7"/>
<path d="M252.652 105.651C252.918 105.627 253.154 105.823 253.178 106.089L253.337 107.951L253.455 109.45C253.534 110.474 253.611 111.547 253.685 112.651C253.827 114.781 253.946 116.865 254.032 118.853L254.073 119.838C254.249 124.367 254.237 128.003 253.988 130.431C253.729 132.965 252.459 137.152 250.418 142.57L250.218 143.098C249.82 144.144 249.399 145.223 248.957 146.329C248.073 148.544 247.138 150.789 246.193 152.99L245.078 155.554L244.012 157.942L243.93 158.113L235.802 188.581L237.257 197.531C237.291 197.742 237.182 197.947 236.997 198.04L236.913 198.073L236.267 198.249L236.104 198.292C235.444 198.464 234.667 198.657 233.78 198.863C231.248 199.453 228.333 200.043 225.075 200.594C209.397 203.242 192.067 204.045 174.236 201.886C174.004 201.858 173.826 201.669 173.811 201.437L173.686 199.939C173.536 198.279 173.265 195.439 172.895 191.655L171.632 178.887L171.074 173.313L170.769 172.819L170.407 172.215C170.218 171.897 170.018 171.556 169.81 171.193C168.819 169.463 167.828 167.591 166.903 165.645C165.653 163.017 164.622 160.458 163.885 158.043C163.213 155.841 162.8 153.809 162.685 151.979C162.392 147.338 162.765 143.678 163.869 139.914C164.456 137.913 165.249 135.858 166.416 133.246L166.892 132.199C167.144 131.655 167.496 130.906 167.886 130.076L170.809 123.91L170.613 116.097C170.607 115.859 170.773 115.658 170.998 115.611L171.084 115.601C171.322 115.595 171.523 115.761 171.57 115.986L171.58 116.072L171.779 124.001L171.733 124.219L167.938 132.243C167.771 132.603 167.633 132.902 167.536 133.116C166.254 135.945 165.408 138.102 164.797 140.187C163.726 143.839 163.364 147.386 163.65 151.918C163.76 153.665 164.158 155.626 164.81 157.76C165.532 160.126 166.546 162.642 167.776 165.23C168.69 167.152 169.67 169.002 170.65 170.712L171.048 171.4C171.177 171.619 171.301 171.828 171.421 172.026L171.951 172.89L172.025 173.102L174.233 195.431C174.434 197.515 174.584 199.113 174.676 200.154L174.746 200.972L175.56 201.068C192.462 202.99 208.894 202.251 223.848 199.816L224.914 199.64C227.882 199.138 230.562 198.604 232.924 198.068L233.561 197.921C234.293 197.75 234.948 197.59 235.524 197.443L236.231 197.257L234.831 188.633L234.841 188.431L243.023 157.787L243.812 156.027C243.996 155.611 244.19 155.172 244.392 154.711L244.596 154.244C245.777 151.536 246.957 148.728 248.059 145.97C248.499 144.869 248.918 143.795 249.314 142.755L249.874 141.26C251.674 136.388 252.793 132.608 253.026 130.333L253.082 129.714C253.261 127.462 253.266 124.292 253.127 120.432L253.107 119.875C253.018 117.606 252.885 115.192 252.72 112.716L252.607 111.09C252.569 110.557 252.53 110.035 252.491 109.524L252.215 106.177C252.19 105.911 252.386 105.675 252.652 105.651Z" fill="#4E5C93"/>
<path fill-rule="evenodd" clip-rule="evenodd" d="M226.39 207.264C249.515 207.264 262.361 287.775 278.316 318.129C276.05 323.991 265.17 333.557 265.17 333.557C265.17 333.557 265.663 338.482 265.977 341.443C253.602 349.483 231.124 352.075 231.124 352.075L230.612 356.203C193.772 368.383 148.612 347.644 148.612 347.644C148.612 347.644 147.838 346.651 148.831 343.481C132.949 341.506 101.172 317.495 101.172 317.495L105.584 309.388L71.3621 265.933C71.3621 265.933 137.973 225.653 157.012 214.116C174.145 203.734 171.145 202.125 171.145 202.125C171.145 202.125 202.616 207.264 226.39 207.264Z" fill="#253368"/>
<path d="M122.261 285.729C122.445 285.458 122.813 285.387 123.085 285.57C123.326 285.734 123.409 286.043 123.296 286.3L123.244 286.394L102.609 316.895L102.827 317.099L103.51 317.718L103.767 317.947C105.027 319.062 106.518 320.306 108.23 321.646C113.126 325.479 118.816 329.312 125.236 332.891C132.574 336.98 140.405 340.47 148.684 343.176C148.995 343.277 149.165 343.612 149.064 343.924C148.962 344.235 148.627 344.405 148.316 344.303C139.961 341.573 132.06 338.052 124.659 333.927C118.182 330.317 112.441 326.449 107.498 322.58C105.94 321.361 104.563 320.219 103.371 319.178L102.981 318.835C102.712 318.597 102.465 318.375 102.24 318.17L101.534 317.512C101.486 317.466 101.448 317.429 101.42 317.402C101.241 317.227 101.195 316.961 101.293 316.739L101.344 316.647L122.261 285.729Z" fill="#253368"/>
<path d="M244.215 263.222C244.498 263.142 244.792 263.282 244.913 263.541L244.947 263.631L267.063 341.944C267.14 342.217 267.014 342.507 266.761 342.635L266.517 342.756C266.348 342.838 266.122 342.947 265.842 343.078L265.176 343.387C264.596 343.652 263.956 343.936 263.258 344.235C260.472 345.429 257.344 346.623 253.946 347.738C246.534 350.168 238.905 351.875 231.342 352.537C231.016 352.566 230.728 352.325 230.7 351.998C230.671 351.672 230.913 351.384 231.239 351.355C238.703 350.702 246.245 349.014 253.576 346.61C256.94 345.507 260.035 344.326 262.791 343.144L263.589 342.798C263.975 342.628 264.339 342.465 264.682 342.308L265.639 341.862L265.786 341.79L243.805 263.954C243.725 263.67 243.865 263.376 244.124 263.255L244.215 263.222Z" fill="#253368"/>
<path d="M219.193 197.373C219.487 197.348 219.749 197.541 219.819 197.818L219.838 197.954L221.097 213.063C221.299 215.533 221.51 218.114 221.728 220.795L222.382 228.921C223.364 241.174 224.338 253.691 225.274 266.162L225.892 274.465C226.349 280.664 226.788 286.736 227.206 292.659L227.833 301.666C229.304 323.095 230.429 341.717 231.131 356.765C231.144 357.054 230.948 357.31 230.665 357.372C209.219 362.067 186.582 360.123 164.874 354.033C160.265 352.74 156.075 351.354 152.383 349.968L151.443 349.61C150.683 349.318 149.985 349.04 149.35 348.78L148.498 348.425L147.778 348.113C147.534 348.002 147.398 347.745 147.435 347.488L147.458 347.392L188.772 218.013C188.872 217.701 189.206 217.528 189.518 217.628C189.799 217.718 189.966 217.997 189.925 218.28L189.903 218.374L148.75 347.242L149.432 347.53L150.185 347.839C150.837 348.103 151.552 348.384 152.328 348.679L152.801 348.857C156.461 350.232 160.619 351.607 165.194 352.891C186.404 358.841 208.502 360.801 229.446 356.42L229.922 356.317L229.664 351.037C228.976 337.448 227.987 321.32 226.744 303.134L226.375 297.78L225.842 290.196C225.479 285.084 225.101 279.865 224.709 274.553L224.091 266.251C223.155 253.782 222.181 241.267 221.2 229.016L219.828 212.108L218.652 198.014C218.624 197.688 218.867 197.401 219.193 197.373Z" fill="#253368"/>
<path d="M204.813 198.043C205.107 198.061 205.339 198.289 205.369 198.573L205.372 198.669L199.269 307.574C199.251 307.901 198.971 308.152 198.644 308.134C198.35 308.117 198.117 307.888 198.087 307.604L198.085 307.508L204.187 198.603C204.206 198.276 204.486 198.026 204.813 198.043Z" fill="#253368"/>
<path d="M180.094 209.302C180.285 209.035 180.655 208.975 180.922 209.166C181.158 209.335 181.233 209.647 181.112 209.901L181.058 209.993L135.989 272.794C135.798 273.06 135.427 273.121 135.161 272.93C134.925 272.76 134.85 272.448 134.971 272.194L135.025 272.102L180.094 209.302Z" fill="#253368"/>
<path fill-rule="evenodd" clip-rule="evenodd" d="M121.76 230.132L194.999 226.367L125.908 197.194L64.948 206.273L121.76 230.132Z" fill="#253368"/>
<path fill-rule="evenodd" clip-rule="evenodd" d="M119.578 224.822L172.771 222.088L123.834 200.934L78.3169 207.495L119.578 224.822Z" fill="#4E5C93"/>
<path fill-rule="evenodd" clip-rule="evenodd" d="M194.562 230.08L195.012 226.393L120.328 229.645L121.154 233.719L194.562 230.08Z" fill="#597EF7"/>
<path d="M113.497 203.164C113.562 203.032 113.708 202.967 113.845 202.999L113.913 203.023L153.483 222.481C153.637 222.556 153.7 222.742 153.625 222.896C153.56 223.028 153.414 223.093 153.277 223.062L153.209 223.038L113.639 203.58C113.485 203.504 113.422 203.318 113.497 203.164Z" fill="#CCD7EE"/>
<path d="M119.191 201.555C119.254 201.422 119.399 201.354 119.536 201.384L119.604 201.407L163.94 222.294C164.095 222.367 164.161 222.552 164.088 222.707C164.026 222.84 163.881 222.908 163.743 222.879L163.675 222.856L119.34 201.968C119.185 201.895 119.118 201.71 119.191 201.555Z" fill="#CCD7EE"/>
<path d="M112.481 206.841C112.547 206.71 112.694 206.647 112.831 206.68L112.898 206.705L146.07 223.593C146.222 223.671 146.283 223.857 146.205 224.01C146.139 224.141 145.992 224.204 145.855 224.171L145.788 224.146L112.617 207.258C112.464 207.18 112.403 206.994 112.481 206.841Z" fill="#CCD7EE"/>
<path d="M102.907 206.781C102.974 206.65 103.121 206.587 103.258 206.62L103.325 206.645L136.496 223.534C136.649 223.612 136.71 223.799 136.632 223.952C136.565 224.082 136.418 224.146 136.282 224.112L136.215 224.087L103.043 207.198C102.89 207.12 102.83 206.934 102.907 206.781Z" fill="#CCD7EE"/>
<path d="M94.0011 207.343C94.0678 207.212 94.2145 207.149 94.3513 207.182L94.4184 207.207L127.59 224.095C127.743 224.173 127.803 224.36 127.726 224.512C127.659 224.643 127.512 224.706 127.375 224.673L127.308 224.648L94.1369 207.76C93.9841 207.683 93.9234 207.496 94.0011 207.343Z" fill="#CCD7EE"/>
<path d="M164.454 218.914C164.626 218.911 164.767 219.048 164.77 219.219C164.772 219.366 164.672 219.491 164.536 219.525L164.465 219.535L119.112 220.311C118.94 220.313 118.799 220.177 118.796 220.006C118.794 219.859 118.894 219.734 119.03 219.699L119.101 219.69L164.454 218.914Z" fill="#CCD7EE"/>
<path d="M154.894 214.359C155.065 214.356 155.207 214.493 155.21 214.664C155.212 214.811 155.112 214.936 154.976 214.97L154.905 214.98L109.553 215.757C109.382 215.76 109.241 215.624 109.238 215.452C109.235 215.305 109.335 215.181 109.472 215.146L109.543 215.137L154.894 214.359Z" fill="#CCD7EE"/>
<path d="M142.834 210.719C143.005 210.716 143.146 210.853 143.149 211.024C143.152 211.171 143.052 211.296 142.915 211.33L142.844 211.34L97.4912 212.115C97.3198 212.118 97.1786 211.982 97.1756 211.811C97.1731 211.664 97.2731 211.539 97.4096 211.504L97.4806 211.495L142.834 210.719Z" fill="#CCD7EE"/>
<path d="M135.165 203.641C135.336 203.638 135.477 203.775 135.48 203.946C135.483 204.093 135.383 204.218 135.246 204.252L135.175 204.261L89.8222 205.039C89.6509 205.042 89.5096 204.905 89.5066 204.734C89.5042 204.587 89.6041 204.462 89.7406 204.428L89.8116 204.418L135.165 203.641Z" fill="#CCD7EE"/>
<path fill-rule="evenodd" clip-rule="evenodd" d="M121.096 233.715L117.831 233.653L64.1443 210.318L51.6523 114.052L110.205 132.336L121.096 233.715Z" fill="#597EF7"/>
<path fill-rule="evenodd" clip-rule="evenodd" d="M117.714 233.646L61.095 209.064C60.5794 208.84 60.2159 208.36 60.1429 207.8L48.0373 115.278C47.8852 114.114 48.9909 113.186 50.1104 113.538L105.642 130.961C106.25 131.152 106.688 131.685 106.757 132.319L117.714 233.646Z" fill="#253368"/>
<path fill-rule="evenodd" clip-rule="evenodd" d="M263.963 210.598L262.739 210.817C254.341 212.309 246.322 206.713 244.829 198.316L231.049 120.849C229.557 112.451 235.154 104.434 243.55 102.939L244.776 102.721C253.172 101.228 261.192 106.825 262.684 115.222L276.464 192.688C277.958 201.086 272.36 209.104 263.963 210.598Z" fill="#FFC999"/>
<path fill-rule="evenodd" clip-rule="evenodd" d="M268.618 148.576L262.198 112.489C260.651 103.788 252.267 97.9371 243.567 99.484C234.869 101.032 229.016 109.416 230.563 118.115L236.922 153.861L268.618 148.576Z" fill="#253368"/>
<path d="M262.571 111.931C262.805 111.889 263.029 112.023 263.109 112.238L263.132 112.322L269.551 148.411C269.592 148.645 269.457 148.87 269.241 148.949L269.157 148.972L236.321 154.638C236.09 154.678 235.869 154.546 235.788 154.335L235.764 154.252L230.197 125.131C230.147 124.869 230.319 124.615 230.582 124.565C230.815 124.52 231.041 124.651 231.123 124.865L231.147 124.949L236.625 153.602L268.513 148.101L262.18 112.491C262.138 112.258 262.272 112.033 262.487 111.953L262.571 111.931Z" fill="#4E5C93"/>
<path fill-rule="evenodd" clip-rule="evenodd" d="M168.724 207.979C169.078 212.456 172.891 215.861 177.378 215.71L264.005 212.796C271.957 212.265 277.942 205.337 277.312 197.393C276.677 189.379 269.563 183.462 261.566 184.297L175.675 199.039C171.396 199.772 168.38 203.65 168.724 207.979Z" fill="#FFC999"/>
<path fill-rule="evenodd" clip-rule="evenodd" d="M185.245 215.188C179.183 219.933 159.548 218.047 159.548 218.047L146.893 225.149C144.925 226.057 144.378 224.743 143.384 224.794C140.706 224.934 140.56 222.122 140.56 222.122C139.614 221.731 138.163 222.514 137.629 219.991C137.629 219.991 135.748 219.955 135.495 217.685C135.363 216.487 146.668 198.49 146.668 198.49L164.908 198.042C164.908 198.042 191.541 197.158 194.835 202.971C198.128 208.784 185.245 215.188 185.245 215.188Z" fill="#FFC999"/>
<path d="M146.3 197.226L179.298 198.099C179.629 198.108 179.89 198.383 179.882 198.714C179.874 199.013 179.65 199.254 179.363 199.293L179.266 199.298L146.61 198.434L145.048 200.942L143.484 203.475C143.225 203.896 142.967 204.316 142.712 204.734L140.495 208.39C137.711 213.03 135.764 216.525 135.709 216.932L135.708 216.954C135.745 217.283 135.508 217.58 135.178 217.617C134.849 217.654 134.552 217.416 134.516 217.087C134.444 216.446 135.794 213.931 138.567 209.273L140.184 206.58C141.162 204.962 142.197 203.272 143.242 201.579L145.776 197.506C145.872 197.352 146.032 197.252 146.21 197.23L146.3 197.226Z" fill="#DD936F"/>
<path d="M153.336 202.721C153.638 202.583 153.994 202.715 154.132 203.016C154.256 203.288 154.161 203.603 153.922 203.764L153.836 203.812L147.138 206.881L138.128 220.325C137.962 220.573 137.643 220.658 137.381 220.537L137.296 220.49C137.048 220.324 136.963 220.005 137.084 219.742L137.131 219.657L146.236 206.073C146.282 206.004 146.342 205.946 146.412 205.901L146.484 205.862L153.336 202.721Z" fill="#DD936F"/>
<path d="M154.757 207.578C155.057 207.436 155.415 207.564 155.557 207.864C155.684 208.133 155.593 208.45 155.356 208.614L155.271 208.663L149.973 211.171L141.031 222.493C140.849 222.724 140.53 222.785 140.279 222.651L140.188 222.592C139.957 222.409 139.896 222.091 140.03 221.84L140.089 221.749L149.12 210.317C149.158 210.269 149.203 210.227 149.254 210.193L149.334 210.147L154.757 207.578Z" fill="#DD936F"/>
<path d="M160.154 210.161C160.446 210.004 160.81 210.113 160.967 210.405C161.108 210.668 161.034 210.988 160.805 211.165L160.723 211.218L153.385 215.168L144.133 224.821C143.929 225.034 143.607 225.064 143.369 224.907L143.285 224.839C143.072 224.635 143.042 224.312 143.199 224.075L143.267 223.991L152.583 214.271L152.732 214.158L160.154 210.161Z" fill="#DD936F"/>
<path d="M70.9955 265.468C71.2243 265.288 71.5444 265.303 71.755 265.489L71.8285 265.567L106.051 309.022C106.254 309.279 106.209 309.652 105.952 309.855C105.723 310.035 105.403 310.02 105.192 309.834L105.119 309.756L70.8965 266.301C70.6938 266.043 70.7381 265.67 70.9955 265.468Z" fill="#253368"/>
</g>
<defs>
<clipPath id="clip0_174_9802">
<rect width="279" height="522" fill="white"/>
</clipPath>
</defs>
</svg>
